<svg width="113" height="40" viewBox="0 0 113 40" fill="none" xmlns="http://www.w3.org/2000/svg">
<path d="M2 0H0V40H2V0Z" fill="black"/>
<path d="M4 0H3V40H4V0Z" fill="black"/>
<path d="M7 0H6V40H7V0Z" fill="black"/>
<path d="M14 0H12V40H14V0Z" fill="black"/>
<path d="M19 0H17V40H19V0Z" fill="black"/>
<path d="M21 0H20V40H21V0Z" fill="black"/>
<path d="M25 0H24V40H25V0Z" fill="black"/>
<path d="M28 0H26V40H28V0Z" fill="black"/>
<path d="M33 0H31V40H33V0Z" fill="black"/>
<path d="M38 0H37V40H38V0Z" fill="black"/>
<path d="M42 0H39V40H42V0Z" fill="black"/>
<path d="M48 0H43V40H48V0Z" fill="black"/>
<path d="M51 0H49V40H51V0Z" fill="black"/>
<path d="M54 0H53V40H54V0Z" fill="black"/>
<path d="M59 0H58V40H59V0Z" fill="black"/>
<path d="M63 0H61V40H63V0Z" fill="black"/>
<path d="M67 0H65V40H67V0Z" fill="black"/>
<path d="M71 0H69V40H71V0Z" fill="black"/>
<path d="M76 0H73V40H76V0Z" fill="black"/>
<path d="M80 0H78V40H80V0Z" fill="black"/>
<path d="M84 0H81V40H84V0Z" fill="black"/>
<path d="M87 0H86V40H87V0Z" fill="black"/>
<path d="M93 0H90V40H93V0Z" fill="black"/>
<path d="M97 0H96V40H97V0Z" fill="black"/>
<path d="M100 0H98V40H100V0Z" fill="black"/>
<path d="M107 0H104V40H107V0Z" fill="black"/>
<path d="M109 0H108V40H109V0Z" fill="black"/>
<path d="M113 0H110V40H113V0Z" fill="black"/>
</svg>
