<svg width="43" height="10" viewBox="0 0 43 10" fill="none" xmlns="http://www.w3.org/2000/svg">
<path d="M16.0017 2.73703H17.3376C17.3592 2.73729 17.3798 2.74608 17.395 2.7615C17.4101 2.77691 17.4186 2.79772 17.4186 2.8194V3.28325C17.4186 4.49995 17.4417 5.71761 17.4067 6.93335C17.3765 7.98773 18.1496 8.53779 18.8653 8.53153C19.7199 8.52334 20.3167 7.86731 20.3182 6.91986C20.3182 5.5654 20.3182 4.21046 20.3182 2.83096C20.3181 2.82023 20.3201 2.80959 20.3242 2.79966C20.3282 2.78973 20.3342 2.7807 20.3417 2.77309C20.3492 2.76548 20.3582 2.75944 20.3681 2.75532C20.3779 2.7512 20.3885 2.74907 20.3992 2.74908H21.7413C21.7628 2.7492 21.7834 2.75789 21.7986 2.77323C21.8138 2.78857 21.8223 2.80933 21.8223 2.83096V5.01052C21.8223 5.59382 21.8223 6.17713 21.8223 6.76043C21.8223 7.82733 22.3975 8.53394 23.2761 8.53876C24.0723 8.54261 24.81 7.92656 24.7765 6.74694C24.742 5.45944 24.7674 4.17 24.7683 2.84204C24.7683 2.8204 24.7768 2.79965 24.792 2.78431C24.8072 2.76896 24.8278 2.76028 24.8493 2.76015H26.1987C26.2201 2.76028 26.2405 2.76891 26.2556 2.78417C26.2707 2.79942 26.2792 2.82005 26.2792 2.84156C26.2792 3.59874 26.2883 4.36508 26.2768 5.13094C26.2648 5.94544 26.3429 6.78114 26.1881 7.56915C25.7256 9.9226 23.0686 10.7674 21.2672 9.18131C21.2068 9.12784 21.1383 9.08497 21.0597 9.02669C20.1605 9.91345 19.1078 10.2309 17.9167 9.82675C16.7725 9.44141 16.0075 8.62498 15.9384 7.3972C15.8541 5.88475 15.9159 4.36267 15.9178 2.81844C15.9178 2.79693 15.9263 2.7763 15.9414 2.76105C15.9565 2.74579 15.977 2.73716 15.9984 2.73703" fill="black"/>
<path d="M6.30233 4.97829C6.3017 4.36552 6.05901 3.77807 5.62759 3.345C5.19617 2.91194 4.61131 2.66868 4.00151 2.66868H1.45575V0.0864444C1.45571 0.0720255 1.45209 0.057845 1.44522 0.0451864C1.43835 0.0325279 1.42845 0.0217909 1.4164 0.0139479C1.40436 0.00610491 1.39057 0.00140338 1.37626 0.000268828C1.36196 -0.000865724 1.3476 0.00160267 1.33448 0.00745042L0.158188 0.531026C0.111213 0.55196 0.0712774 0.586117 0.0432066 0.629368C0.0151357 0.67262 0.000131217 0.723115 6.52244e-06 0.774752V9.68229C-0.000120478 9.69167 0.00160831 9.70098 0.00509248 9.70968C0.00857665 9.71838 0.0137467 9.72631 0.0203025 9.73298C0.0268582 9.73966 0.0346689 9.74496 0.0432809 9.74858C0.0518929 9.7522 0.0611346 9.75406 0.0704691 9.75406H1.38577C1.40429 9.75393 1.42202 9.74648 1.43512 9.73332C1.44821 9.72016 1.45563 9.70235 1.45575 9.68373V4.0294C1.45575 4.0294 3.64489 4.0294 3.72446 4.03422C4.54412 4.06119 4.895 4.52745 4.90123 5.34629C4.90507 5.86649 4.90123 9.18665 4.90123 9.71071C4.90123 9.71992 4.90304 9.72904 4.90657 9.73755C4.91009 9.74605 4.91525 9.75377 4.92176 9.76026C4.92826 9.76676 4.93598 9.77189 4.94447 9.77537C4.95296 9.77885 4.96205 9.78061 4.97121 9.78055H6.23235C6.25091 9.78055 6.26871 9.77314 6.28183 9.75995C6.29496 9.74677 6.30233 9.72888 6.30233 9.71023V4.97829Z" fill="black"/>
<path d="M42.3394 9.60951L40.2782 5.72195L40.4546 5.49893C40.4819 5.4589 40.5111 5.42031 40.5424 5.38333C41.1474 4.67969 41.6008 3.8577 41.874 2.9692L41.8773 2.96679L41.9099 2.85071C41.9157 2.8299 41.9167 2.80802 41.9127 2.78677C41.9088 2.76553 41.9 2.74547 41.8872 2.72816C41.8743 2.71084 41.8576 2.69673 41.8385 2.68692C41.8193 2.6771 41.7981 2.67183 41.7766 2.67153L40.5654 2.6513C40.5381 2.6507 40.5113 2.65814 40.4882 2.67269C40.4651 2.68724 40.4468 2.70827 40.4355 2.73318L39.9791 3.72398C39.4638 4.71863 38.6979 5.49123 37.4602 5.80142V0.244869C37.4601 0.230454 37.4565 0.216285 37.4496 0.20363C37.4428 0.190976 37.4329 0.18023 37.4208 0.172356C37.4088 0.164481 37.3951 0.159723 37.3808 0.158508C37.3665 0.157293 37.3521 0.159659 37.3389 0.165393L36.1847 0.678854C36.1376 0.699749 36.0975 0.73395 36.0693 0.777301C36.0411 0.820652 36.0261 0.871289 36.026 0.923061V9.6413C36.026 9.65617 36.029 9.67089 36.0346 9.68462C36.0403 9.69835 36.0486 9.71083 36.059 9.72134C36.0695 9.73185 36.0819 9.74019 36.0956 9.74588C36.1092 9.75157 36.1239 9.75449 36.1387 9.75449H37.3691C37.3839 9.75449 37.3986 9.75157 37.4122 9.74588C37.4259 9.74019 37.4383 9.73185 37.4488 9.72134C37.4593 9.71083 37.4675 9.69835 37.4732 9.68462C37.4789 9.67089 37.4818 9.65617 37.4818 9.6413V7.271C37.4818 7.271 38.2056 7.15925 39.0957 6.68384L40.7451 9.72126C40.7546 9.73922 40.7689 9.7542 40.7863 9.76457C40.8037 9.77493 40.8236 9.78028 40.8439 9.78002C41.0711 9.78002 41.827 9.77569 42.2421 9.77472C42.2612 9.77437 42.2798 9.7691 42.2963 9.75941C42.3127 9.74973 42.3264 9.73595 42.336 9.71941C42.3457 9.70286 42.3509 9.68411 42.3512 9.66495C42.3516 9.64579 42.347 9.62686 42.338 9.60999" fill="black"/>
<path d="M11.0018 8.58307C9.7665 8.57729 8.83851 7.59131 8.83371 6.28068C8.82892 4.93923 9.71809 3.96433 10.9572 3.95277C12.3353 3.93928 13.2355 4.85157 13.2388 6.26479C13.2417 7.63418 12.3199 8.58982 11.0018 8.58355M13.2067 2.73896C13.1904 2.90369 13.1751 3.21485 13.1588 3.38295C11.5559 2.01983 9.30394 2.48945 8.26953 3.61223C7.07119 4.91611 6.98491 7.26956 8.09074 8.67796C9.03743 9.88503 11.2227 10.6239 13.1487 9.16926C13.1803 9.3759 13.2091 9.56375 13.2379 9.75257H14.5095C14.5604 9.75257 14.6092 9.73227 14.6451 9.69614C14.6811 9.66 14.7013 9.611 14.7013 9.5599V2.93115C14.7013 2.88005 14.6811 2.83104 14.6451 2.79491C14.6092 2.75878 14.5604 2.73848 14.5095 2.73848L13.2067 2.73896Z" fill="black"/>
<path d="M30.9427 8.58307C29.7074 8.57729 28.7789 7.59131 28.7746 6.28068C28.7698 4.93923 29.659 3.96433 30.8981 3.95277C32.2757 3.93928 33.1764 4.85157 33.1797 6.26479C33.1826 7.63418 32.2608 8.58982 30.9427 8.58355M33.1476 2.73896C33.1313 2.90369 33.1155 3.21485 33.0997 3.38295C31.4968 2.01983 29.2449 2.48945 28.2104 3.61223C27.0121 4.91611 26.9258 7.26956 28.0312 8.67796C28.9783 9.88503 31.1632 10.6239 33.0896 9.16926C33.1213 9.3759 33.15 9.56375 33.1788 9.75257H34.45C34.5008 9.75257 34.5496 9.73227 34.5856 9.69614C34.6215 9.66 34.6417 9.611 34.6417 9.5599V2.93115C34.6417 2.88005 34.6215 2.83104 34.5856 2.79491C34.5496 2.75878 34.5008 2.73848 34.45 2.73848L33.1476 2.73896Z" fill="black"/>
</svg>
