<svg width="116" height="12" viewBox="0 0 116 12" fill="none" xmlns="http://www.w3.org/2000/svg">
<g clip-path="url(#clip0_9335_44622)">
<path d="M109.245 0L102.854 3.85334V12H115.638V3.85334L109.245 0Z" fill="black"/>
<path d="M2.31925 0.248169H0V11.9993H9.89112V9.88402H2.31925V0.248169Z" fill="black"/>
<path d="M21.1711 0.248169H17.6923L12.9375 11.9993H15.3959L16.3465 9.64898H22.4693L23.4199 11.9993H25.9247L21.1711 0.248169ZM17.2049 7.53429L19.2922 2.36349H19.5242L21.6115 7.53429H17.2049Z" fill="black"/>
<path d="M53.7864 0.248169H50.3075L45.5527 11.9993H48.0111L48.9617 9.64898H55.0845L56.0351 11.9993H58.5399L53.7864 0.248169ZM49.8201 7.53429L51.9075 2.36349H52.1394L54.2267 7.53429H49.8201Z" fill="black"/>
<path d="M80.8368 0.248169H78.5176V11.9993H80.8368V0.248169Z" fill="black"/>
<path d="M91.9031 5.23031L91.7875 5.23219L88.1336 0.248169H86.0469V11.9993H88.3661V5.36631C88.3661 4.72326 88.3074 4.10088 88.2839 3.87148H88.3853C88.4719 4.0896 88.7329 4.64491 89.0619 5.08928L90.6854 7.29862H93.0046L94.6281 5.08928C94.9571 4.64491 95.2175 4.0896 95.3047 3.87148H95.4061C95.382 4.10088 95.3232 4.72326 95.3232 5.36631V11.9993H97.6425V0.248169H95.5558L91.9037 5.23093L91.9031 5.23031Z" fill="black"/>
<path d="M65.6787 9.96109V9.87084C65.6787 9.87084 65.8958 9.76116 66.0238 9.65085C66.1815 9.51108 66.3194 9.36128 66.4672 9.21149C66.615 9.06169 66.7629 8.92192 66.9107 8.77213C66.9107 8.77213 67.719 7.96298 68.0443 7.6333L73.566 2.12719V0.248779H62.6705V2.36724H68.9714C69.5435 2.36724 70.0951 2.30707 70.3023 2.28701V2.37664C70.3023 2.37664 70.0853 2.48632 69.9572 2.59663C69.7995 2.7364 69.6517 2.8862 69.5132 3.03599C69.3654 3.18579 69.2175 3.32556 69.0697 3.47535L64.9186 7.63204L62.4336 10.1203V11.9987H73.8022V9.88024H67.009C66.4369 9.88024 65.8846 9.94041 65.6781 9.96047L65.6787 9.96109Z" fill="black"/>
<path d="M39.4835 7.43839C39.4507 7.75365 39.4037 8.31398 39.4037 8.94387H39.3109C39.288 8.94387 39.0332 7.51047 38.4067 6.10025L36.8995 2.59853H34.5803L33.0731 6.10025C32.4466 7.51047 32.1918 8.94387 32.1689 8.94387H32.0761C32.0761 8.31398 32.0291 7.75303 31.9963 7.43839L31.1713 0.248169H28.8984L30.29 11.9993H32.7249L34.7887 7.27543C35.3892 5.92037 35.6317 5.05043 35.6954 4.79784H35.7832C35.8475 5.05043 36.0893 5.92037 36.6899 7.27543L38.7537 11.9993H41.1886L42.5814 0.248169H40.3085L39.4835 7.43839Z" fill="black"/>
</g>
<defs>
<clipPath id="clip0_9335_44622">
<rect width="115.636" height="12" fill="white"/>
</clipPath>
</defs>
</svg>
