<svg width="50" height="50" viewBox="0 0 50 50" fill="none" xmlns="http://www.w3.org/2000/svg">
<g clip-path="url(#clip0_9335_43561)">
<path d="M0 0L50 0L50 50L0 50L0 0Z" fill="white"/>
<path d="M33.3325 3.03027L34.8477 3.03027V4.54542H33.3325V3.03027Z" fill="black"/>
<path d="M31.8169 3.03027L33.332 3.03027V4.54542H31.8169V3.03027Z" fill="black"/>
<path d="M30.3013 3.03027L31.8164 3.03027V4.54542H30.3013V3.03027Z" fill="black"/>
<path d="M22.727 3.03027L24.2422 3.03027V4.54542H22.727V3.03027Z" fill="black"/>
<path d="M21.2114 3.03027L22.7266 3.03027V4.54542H21.2114V3.03027Z" fill="black"/>
<path d="M19.6958 3.03027L21.2109 3.03027V4.54542H19.6958V3.03027Z" fill="black"/>
<path d="M30.3013 4.54541H31.8164V6.06056H30.3013V4.54541Z" fill="black"/>
<path d="M28.7876 4.54541H30.3027V6.06056H28.7876V4.54541Z" fill="black"/>
<path d="M27.272 4.54541H28.7871V6.06056H27.272V4.54541Z" fill="black"/>
<path d="M25.7563 4.54541H27.2715V6.06056H25.7563V4.54541Z" fill="black"/>
<path d="M24.2407 4.54541H25.7559V6.06056H24.2407V4.54541Z" fill="black"/>
<path d="M21.2114 4.54541H22.7266V6.06056H21.2114V4.54541Z" fill="black"/>
<path d="M19.6958 4.54541H21.2109V6.06056H19.6958V4.54541Z" fill="black"/>
<path d="M15.1509 4.54541H16.666V6.06056H15.1509V4.54541Z" fill="black"/>
<path d="M33.3325 6.06055H34.8477V7.5757H33.3325V6.06055Z" fill="black"/>
<path d="M30.3013 6.06055H31.8164V7.5757H30.3013V6.06055Z" fill="black"/>
<path d="M28.7876 6.06055H30.3027V7.5757H28.7876V6.06055Z" fill="black"/>
<path d="M24.2407 6.06055H25.7559V7.5757H24.2407V6.06055Z" fill="black"/>
<path d="M22.727 6.06055H24.2422V7.5757H22.727V6.06055Z" fill="black"/>
<path d="M21.2114 6.06055H22.7266V7.5757H21.2114V6.06055Z" fill="black"/>
<path d="M19.6958 6.06055H21.2109V7.5757H19.6958V6.06055Z" fill="black"/>
<path d="M15.1509 6.06055H16.666V7.5757H15.1509V6.06055Z" fill="black"/>
<path d="M31.8169 7.57568H33.332V9.09084H31.8169V7.57568Z" fill="black"/>
<path d="M30.3013 7.57568H31.8164V9.09084H30.3013V7.57568Z" fill="black"/>
<path d="M27.272 7.57568H28.7871V9.09084H27.272V7.57568Z" fill="black"/>
<path d="M24.2407 7.57568H25.7559V9.09084H24.2407V7.57568Z" fill="black"/>
<path d="M19.6958 7.57568H21.2109V9.09084H19.6958V7.57568Z" fill="black"/>
<path d="M16.6665 7.57568H18.1816V9.09084H16.6665V7.57568Z" fill="black"/>
<path d="M31.8169 9.09082H33.332V10.606H31.8169V9.09082Z" fill="black"/>
<path d="M30.3013 9.09082H31.8164V10.606H30.3013V9.09082Z" fill="black"/>
<path d="M28.7876 9.09082H30.3027V10.606H28.7876V9.09082Z" fill="black"/>
<path d="M25.7563 9.09082H27.2715V10.606H25.7563V9.09082Z" fill="black"/>
<path d="M24.2407 9.09082H25.7559V10.606H24.2407V9.09082Z" fill="black"/>
<path d="M22.727 9.09082H24.2422V10.606H22.727V9.09082Z" fill="black"/>
<path d="M18.1802 9.09082H19.6953V10.606H18.1802V9.09082Z" fill="black"/>
<path d="M33.3325 10.606H34.8477V12.1211H33.3325V10.606Z" fill="black"/>
<path d="M30.3013 10.606H31.8164V12.1211H30.3013V10.606Z" fill="black"/>
<path d="M28.7876 10.606H30.3027V12.1211H28.7876V10.606Z" fill="black"/>
<path d="M27.272 10.606H28.7871V12.1211H27.272V10.606Z" fill="black"/>
<path d="M22.727 10.606H24.2422V12.1211H22.727V10.606Z" fill="black"/>
<path d="M19.6958 10.606H21.2109V12.1211H19.6958V10.606Z" fill="black"/>
<path d="M18.1802 10.606H19.6953V12.1211H18.1802V10.606Z" fill="black"/>
<path d="M33.3325 12.1211H34.8477V13.6362H33.3325V12.1211Z" fill="black"/>
<path d="M30.3013 12.1211H31.8164V13.6362H30.3013V12.1211Z" fill="black"/>
<path d="M27.272 12.1211H28.7871V13.6362H27.272V12.1211Z" fill="black"/>
<path d="M24.2407 12.1211H25.7559V13.6362H24.2407V12.1211Z" fill="black"/>
<path d="M21.2114 12.1211H22.7266V13.6362H21.2114V12.1211Z" fill="black"/>
<path d="M18.1802 12.1211H19.6953V13.6362H18.1802V12.1211Z" fill="black"/>
<path d="M15.1509 12.1211H16.666V13.6362H15.1509V12.1211Z" fill="black"/>
<path d="M31.8169 13.6362H33.332V15.1514H31.8169V13.6362Z" fill="black"/>
<path d="M28.7876 13.6362H30.3027V15.1514H28.7876V13.6362Z" fill="black"/>
<path d="M27.272 13.6362H28.7871V15.1514H27.272V13.6362Z" fill="black"/>
<path d="M24.2407 13.6362H25.7559V15.1514H24.2407V13.6362Z" fill="black"/>
<path d="M22.727 13.6362H24.2422V15.1514H22.727V13.6362Z" fill="black"/>
<path d="M21.2114 13.6362H22.7266V15.1514H21.2114V13.6362Z" fill="black"/>
<path d="M16.6665 13.6362H18.1816V15.1514H16.6665V13.6362Z" fill="black"/>
<path d="M15.1509 13.6362H16.666V15.1514H15.1509V13.6362Z" fill="black"/>
<path d="M45.4536 15.1514H46.9688V16.6665H45.4536V15.1514Z" fill="black"/>
<path d="M42.4223 15.1514H43.9375V16.6665H42.4223V15.1514Z" fill="black"/>
<path d="M36.3618 15.1514H37.877V16.6665H36.3618V15.1514Z" fill="black"/>
<path d="M34.8481 15.1514H36.3633V16.6665H34.8481V15.1514Z" fill="black"/>
<path d="M25.7563 15.1514H27.2715V16.6665H25.7563V15.1514Z" fill="black"/>
<path d="M24.2407 15.1514H25.7559V16.6665H24.2407V15.1514Z" fill="black"/>
<path d="M15.1509 15.1514H16.666V16.6665H15.1509V15.1514Z" fill="black"/>
<path d="M10.6059 15.1514H12.1211V16.6665H10.6059V15.1514Z" fill="black"/>
<path d="M6.05907 15.1514H7.57422V16.6665H6.05907V15.1514Z" fill="black"/>
<path d="M3.02977 15.1514H4.54492V16.6665H3.02977L3.02977 15.1514Z" fill="black"/>
<path d="M45.4536 16.6667H46.9688V18.1819H45.4536V16.6667Z" fill="black"/>
<path d="M43.938 16.6667H45.4531V18.1819H43.938V16.6667Z" fill="black"/>
<path d="M42.4223 16.6667H43.9375V18.1819H42.4223V16.6667Z" fill="black"/>
<path d="M40.9087 16.6667H42.4238V18.1819H40.9087V16.6667Z" fill="black"/>
<path d="M37.8774 16.6667H39.3926V18.1819H37.8774V16.6667Z" fill="black"/>
<path d="M34.8481 16.6667H36.3633V18.1819H34.8481V16.6667Z" fill="black"/>
<path d="M31.8169 16.6667H33.332V18.1819H31.8169V16.6667Z" fill="black"/>
<path d="M25.7563 16.6667H27.2715V18.1819H25.7563V16.6667Z" fill="black"/>
<path d="M24.2407 16.6667H25.7559V18.1819H24.2407V16.6667Z" fill="black"/>
<path d="M16.6665 16.6667H18.1816V18.1819H16.6665V16.6667Z" fill="black"/>
<path d="M15.1509 16.6667H16.666V18.1819H15.1509V16.6667Z" fill="black"/>
<path d="M12.1196 16.6667H13.6348V18.1819H12.1196V16.6667Z" fill="black"/>
<path d="M10.6059 16.6667H12.1211V18.1819H10.6059V16.6667Z" fill="black"/>
<path d="M4.5454 16.6667H6.06055V18.1819H4.5454V16.6667Z" fill="black"/>
<path d="M3.02977 16.6667H4.54492V18.1819H3.02977L3.02977 16.6667Z" fill="black"/>
<path d="M43.938 18.1819H45.4531V19.697H43.938V18.1819Z" fill="black"/>
<path d="M42.4223 18.1819H43.9375V19.697H42.4223V18.1819Z" fill="black"/>
<path d="M40.9087 18.1819H42.4238V19.697H40.9087V18.1819Z" fill="black"/>
<path d="M39.3931 18.1819H40.9082V19.697H39.3931V18.1819Z" fill="black"/>
<path d="M36.3618 18.1819H37.877V19.697H36.3618V18.1819Z" fill="black"/>
<path d="M34.8481 18.1819H36.3633V19.697H34.8481V18.1819Z" fill="black"/>
<path d="M28.7876 18.1819H30.3027V19.697H28.7876V18.1819Z" fill="black"/>
<path d="M27.272 18.1819H28.7871V19.697H27.272V18.1819Z" fill="black"/>
<path d="M22.727 18.1819H24.2422V19.697H22.727V18.1819Z" fill="black"/>
<path d="M18.1802 18.1819H19.6953V19.697H18.1802V18.1819Z" fill="black"/>
<path d="M16.6665 18.1819H18.1816V19.697H16.6665V18.1819Z" fill="black"/>
<path d="M10.6059 18.1819H12.1211V19.697H10.6059V18.1819Z" fill="black"/>
<path d="M7.57469 18.1819H9.08984V19.697H7.57469V18.1819Z" fill="black"/>
<path d="M6.05907 18.1819H7.57422V19.697H6.05907V18.1819Z" fill="black"/>
<path d="M3.02977 18.1819H4.54492V19.697H3.02977L3.02977 18.1819Z" fill="black"/>
<path d="M45.4536 19.697H46.9688V21.2122H45.4536V19.697Z" fill="black"/>
<path d="M39.3931 19.697H40.9082V21.2122H39.3931V19.697Z" fill="black"/>
<path d="M34.8481 19.697H36.3633V21.2122H34.8481V19.697Z" fill="black"/>
<path d="M33.3325 19.697H34.8477V21.2122H33.3325V19.697Z" fill="black"/>
<path d="M31.8169 19.697H33.332V21.2122H31.8169V19.697Z" fill="black"/>
<path d="M30.3013 19.697H31.8164V21.2122H30.3013V19.697Z" fill="black"/>
<path d="M28.7876 19.697H30.3027V21.2122H28.7876V19.697Z" fill="black"/>
<path d="M27.272 19.697H28.7871V21.2122H27.272V19.697Z" fill="black"/>
<path d="M25.7563 19.697H27.2715V21.2122H25.7563V19.697Z" fill="black"/>
<path d="M18.1802 19.697H19.6953V21.2122H18.1802V19.697Z" fill="black"/>
<path d="M13.6352 19.697H15.1504V21.2122H13.6352V19.697Z" fill="black"/>
<path d="M10.6059 19.697H12.1211V21.2122H10.6059V19.697Z" fill="black"/>
<path d="M9.09032 19.697H10.6055V21.2122H9.09032V19.697Z" fill="black"/>
<path d="M7.57469 19.697H9.08984V21.2122H7.57469V19.697Z" fill="black"/>
<path d="M39.3931 21.2122H40.9082V22.7273H39.3931V21.2122Z" fill="black"/>
<path d="M37.8774 21.2122H39.3926V22.7273H37.8774V21.2122Z" fill="black"/>
<path d="M36.3618 21.2122H37.877V22.7273H36.3618V21.2122Z" fill="black"/>
<path d="M34.8481 21.2122H36.3633V22.7273H34.8481V21.2122Z" fill="black"/>
<path d="M31.8169 21.2122H33.332V22.7273H31.8169V21.2122Z" fill="black"/>
<path d="M30.3013 21.2122H31.8164V22.7273H30.3013V21.2122Z" fill="black"/>
<path d="M25.7563 21.2122H27.2715V22.7273H25.7563V21.2122Z" fill="black"/>
<path d="M22.727 21.2122H24.2422V22.7273H22.727V21.2122Z" fill="black"/>
<path d="M21.2114 21.2122H22.7266V22.7273H21.2114V21.2122Z" fill="black"/>
<path d="M15.1509 21.2122H16.666V22.7273H15.1509V21.2122Z" fill="black"/>
<path d="M12.1196 21.2122H13.6348V22.7273H12.1196V21.2122Z" fill="black"/>
<path d="M10.6059 21.2122H12.1211V22.7273H10.6059V21.2122Z" fill="black"/>
<path d="M3.02977 21.2122H4.54492V22.7273H3.02977L3.02977 21.2122Z" fill="black"/>
<path d="M40.9087 22.7273H42.4238V24.2424H40.9087V22.7273Z" fill="black"/>
<path d="M39.3931 22.7273H40.9082V24.2424H39.3931V22.7273Z" fill="black"/>
<path d="M31.8169 22.7273H33.332V24.2424H31.8169V22.7273Z" fill="black"/>
<path d="M28.7876 22.7273H30.3027V24.2424H28.7876V22.7273Z" fill="black"/>
<path d="M21.2114 22.7273H22.7266V24.2424H21.2114V22.7273Z" fill="black"/>
<path d="M19.6958 22.7273H21.2109V24.2424H19.6958V22.7273Z" fill="black"/>
<path d="M16.6665 22.7273H18.1816V24.2424H16.6665V22.7273Z" fill="black"/>
<path d="M15.1509 22.7273H16.666V24.2424H15.1509V22.7273Z" fill="black"/>
<path d="M12.1196 22.7273H13.6348V24.2424H12.1196V22.7273Z" fill="black"/>
<path d="M4.5454 22.7273H6.06055V24.2424H4.5454V22.7273Z" fill="black"/>
<path d="M3.02977 22.7273H4.54492V24.2424H3.02977L3.02977 22.7273Z" fill="black"/>
<path d="M45.4536 24.2424H46.9688V25.7576H45.4536V24.2424Z" fill="black"/>
<path d="M43.938 24.2424H45.4531V25.7576H43.938V24.2424Z" fill="black"/>
<path d="M39.3931 24.2424H40.9082V25.7576H39.3931V24.2424Z" fill="black"/>
<path d="M36.3618 24.2424H37.877V25.7576H36.3618V24.2424Z" fill="black"/>
<path d="M31.8169 24.2424H33.332V25.7576H31.8169V24.2424Z" fill="black"/>
<path d="M27.272 24.2424H28.7871V25.7576H27.272V24.2424Z" fill="black"/>
<path d="M25.7563 24.2424H27.2715V25.7576H25.7563V24.2424Z" fill="black"/>
<path d="M24.2407 24.2424H25.7559V25.7576H24.2407V24.2424Z" fill="black"/>
<path d="M21.2114 24.2424H22.7266V25.7576H21.2114V24.2424Z" fill="black"/>
<path d="M16.6665 24.2424H18.1816V25.7576H16.6665V24.2424Z" fill="black"/>
<path d="M15.1509 24.2424H16.666V25.7576H15.1509V24.2424Z" fill="black"/>
<path d="M12.1196 24.2424H13.6348V25.7576H12.1196V24.2424Z" fill="black"/>
<path d="M3.02977 24.2424H4.54492V25.7576H3.02977L3.02977 24.2424Z" fill="black"/>
<path d="M40.9087 25.7576H42.4238V27.2727H40.9087V25.7576Z" fill="black"/>
<path d="M37.8774 25.7576H39.3926V27.2727H37.8774V25.7576Z" fill="black"/>
<path d="M33.3325 25.7576H34.8477V27.2727H33.3325V25.7576Z" fill="black"/>
<path d="M24.2407 25.7576H25.7559V27.2727H24.2407V25.7576Z" fill="black"/>
<path d="M22.727 25.7576H24.2422V27.2727H22.727V25.7576Z" fill="black"/>
<path d="M21.2114 25.7576H22.7266V27.2727H21.2114V25.7576Z" fill="black"/>
<path d="M18.1802 25.7576H19.6953V27.2727H18.1802V25.7576Z" fill="black"/>
<path d="M15.1509 25.7576H16.666V27.2727H15.1509V25.7576Z" fill="black"/>
<path d="M13.6352 25.7576H15.1504V27.2727H13.6352V25.7576Z" fill="black"/>
<path d="M10.6059 25.7576H12.1211V27.2727H10.6059V25.7576Z" fill="black"/>
<path d="M45.4536 27.2727H46.9688V28.7879H45.4536V27.2727Z" fill="black"/>
<path d="M43.938 27.2727H45.4531V28.7879H43.938V27.2727Z" fill="black"/>
<path d="M42.4223 27.2727H43.9375V28.7879H42.4223V27.2727Z" fill="black"/>
<path d="M39.3931 27.2727H40.9082V28.7879H39.3931V27.2727Z" fill="black"/>
<path d="M37.8774 27.2727H39.3926V28.7879H37.8774V27.2727Z" fill="black"/>
<path d="M36.3618 27.2727H37.877V28.7879H36.3618V27.2727Z" fill="black"/>
<path d="M34.8481 27.2727H36.3633V28.7879H34.8481V27.2727Z" fill="black"/>
<path d="M31.8169 27.2727H33.332V28.7879H31.8169V27.2727Z" fill="black"/>
<path d="M30.3013 27.2727H31.8164V28.7879H30.3013V27.2727Z" fill="black"/>
<path d="M28.7876 27.2727H30.3027V28.7879H28.7876V27.2727Z" fill="black"/>
<path d="M27.272 27.2727H28.7871V28.7879H27.272V27.2727Z" fill="black"/>
<path d="M25.7563 27.2727H27.2715V28.7879H25.7563V27.2727Z" fill="black"/>
<path d="M24.2407 27.2727H25.7559V28.7879H24.2407V27.2727Z" fill="black"/>
<path d="M21.2114 27.2727H22.7266V28.7879H21.2114V27.2727Z" fill="black"/>
<path d="M15.1509 27.2727H16.666V28.7879H15.1509V27.2727Z" fill="black"/>
<path d="M12.1196 27.2727H13.6348V28.7879H12.1196V27.2727Z" fill="black"/>
<path d="M3.02977 27.2727H4.54492V28.7879H3.02977L3.02977 27.2727Z" fill="black"/>
<path d="M43.938 28.7878H45.4531V30.303H43.938V28.7878Z" fill="black"/>
<path d="M39.3931 28.7878H40.9082V30.303H39.3931V28.7878Z" fill="black"/>
<path d="M34.8481 28.7878H36.3633V30.303H34.8481V28.7878Z" fill="black"/>
<path d="M33.3325 28.7878H34.8477V30.303H33.3325V28.7878Z" fill="black"/>
<path d="M31.8169 28.7878H33.332V30.303H31.8169V28.7878Z" fill="black"/>
<path d="M28.7876 28.7878H30.3027V30.303H28.7876V28.7878Z" fill="black"/>
<path d="M25.7563 28.7878H27.2715V30.303H25.7563V28.7878Z" fill="black"/>
<path d="M24.2407 28.7878H25.7559V30.303H24.2407V28.7878Z" fill="black"/>
<path d="M19.6958 28.7878H21.2109V30.303H19.6958V28.7878Z" fill="black"/>
<path d="M16.6665 28.7878H18.1816V30.303H16.6665V28.7878Z" fill="black"/>
<path d="M15.1509 28.7878H16.666V30.303H15.1509V28.7878Z" fill="black"/>
<path d="M12.1196 28.7878H13.6348V30.303H12.1196V28.7878Z" fill="black"/>
<path d="M10.6059 28.7878H12.1211V30.303H10.6059V28.7878Z" fill="black"/>
<path d="M6.05907 28.7878H7.57422V30.303H6.05907V28.7878Z" fill="black"/>
<path d="M4.5454 28.7878H6.06055V30.303H4.5454V28.7878Z" fill="black"/>
<path d="M3.02977 28.7878H4.54492V30.303H3.02977L3.02977 28.7878Z" fill="black"/>
<path d="M45.4536 30.303H46.9688V31.8181H45.4536V30.303Z" fill="black"/>
<path d="M43.938 30.303H45.4531V31.8181H43.938V30.303Z" fill="black"/>
<path d="M39.3931 30.303H40.9082V31.8181H39.3931V30.303Z" fill="black"/>
<path d="M37.8774 30.303H39.3926V31.8181H37.8774V30.303Z" fill="black"/>
<path d="M36.3618 30.303H37.877V31.8181H36.3618V30.303Z" fill="black"/>
<path d="M34.8481 30.303H36.3633V31.8181H34.8481V30.303Z" fill="black"/>
<path d="M31.8169 30.303H33.332V31.8181H31.8169V30.303Z" fill="black"/>
<path d="M30.3013 30.303H31.8164V31.8181H30.3013V30.303Z" fill="black"/>
<path d="M28.7876 30.303H30.3027V31.8181H28.7876V30.303Z" fill="black"/>
<path d="M22.727 30.303H24.2422V31.8181H22.727V30.303Z" fill="black"/>
<path d="M21.2114 30.303H22.7266V31.8181H21.2114V30.303Z" fill="black"/>
<path d="M19.6958 30.303H21.2109V31.8181H19.6958V30.303Z" fill="black"/>
<path d="M16.6665 30.303H18.1816V31.8181H16.6665V30.303Z" fill="black"/>
<path d="M7.57469 30.303H9.08984V31.8181H7.57469V30.303Z" fill="black"/>
<path d="M3.02977 30.303H4.54492V31.8181H3.02977L3.02977 30.303Z" fill="black"/>
<path d="M39.3931 31.8181H40.9082V33.3333H39.3931V31.8181Z" fill="black"/>
<path d="M37.8774 31.8181H39.3926V33.3333H37.8774V31.8181Z" fill="black"/>
<path d="M31.8169 31.8181H33.332V33.3333H31.8169V31.8181Z" fill="black"/>
<path d="M30.3013 31.8181H31.8164V33.3333H30.3013V31.8181Z" fill="black"/>
<path d="M27.272 31.8181H28.7871V33.3333H27.272V31.8181Z" fill="black"/>
<path d="M25.7563 31.8181H27.2715V33.3333H25.7563V31.8181Z" fill="black"/>
<path d="M21.2114 31.8181H22.7266V33.3333H21.2114V31.8181Z" fill="black"/>
<path d="M18.1802 31.8181H19.6953V33.3333H18.1802V31.8181Z" fill="black"/>
<path d="M13.6352 31.8181H15.1504V33.3333H13.6352V31.8181Z" fill="black"/>
<path d="M10.6059 31.8181H12.1211V33.3333H10.6059V31.8181Z" fill="black"/>
<path d="M45.4536 33.3333H46.9688V34.8484H45.4536V33.3333Z" fill="black"/>
<path d="M43.938 33.3333H45.4531V34.8484H43.938V33.3333Z" fill="black"/>
<path d="M40.9087 33.3333H42.4238V34.8484H40.9087V33.3333Z" fill="black"/>
<path d="M39.3931 33.3333H40.9082V34.8484H39.3931V33.3333Z" fill="black"/>
<path d="M36.3618 33.3333H37.877V34.8484H36.3618V33.3333Z" fill="black"/>
<path d="M34.8481 33.3333H36.3633V34.8484H34.8481V33.3333Z" fill="black"/>
<path d="M30.3013 33.3333H31.8164V34.8484H30.3013V33.3333Z" fill="black"/>
<path d="M28.7876 33.3333H30.3027V34.8484H28.7876V33.3333Z" fill="black"/>
<path d="M25.7563 33.3333H27.2715V34.8484H25.7563V33.3333Z" fill="black"/>
<path d="M22.727 33.3333H24.2422V34.8484H22.727V33.3333Z" fill="black"/>
<path d="M18.1802 33.3333H19.6953V34.8484H18.1802V33.3333Z" fill="black"/>
<path d="M15.1509 33.3333H16.666V34.8484H15.1509V33.3333Z" fill="black"/>
<path d="M13.6352 33.3333H15.1504V34.8484H13.6352V33.3333Z" fill="black"/>
<path d="M12.1196 33.3333H13.6348V34.8484H12.1196V33.3333Z" fill="black"/>
<path d="M10.6059 33.3333H12.1211V34.8484H10.6059V33.3333Z" fill="black"/>
<path d="M9.09032 33.3333H10.6055V34.8484H9.09032V33.3333Z" fill="black"/>
<path d="M7.57469 33.3333H9.08984V34.8484H7.57469V33.3333Z" fill="black"/>
<path d="M4.5454 33.3333H6.06055V34.8484H4.5454V33.3333Z" fill="black"/>
<path d="M33.3325 34.8484H34.8477V36.3635H33.3325V34.8484Z" fill="black"/>
<path d="M31.8169 34.8484H33.332V36.3635H31.8169V34.8484Z" fill="black"/>
<path d="M30.3013 34.8484H31.8164V36.3635H30.3013V34.8484Z" fill="black"/>
<path d="M28.7876 34.8484H30.3027V36.3635H28.7876V34.8484Z" fill="black"/>
<path d="M27.272 34.8484H28.7871V36.3635H27.272V34.8484Z" fill="black"/>
<path d="M22.727 34.8484H24.2422V36.3635H22.727V34.8484Z" fill="black"/>
<path d="M19.6958 34.8484H21.2109V36.3635H19.6958V34.8484Z" fill="black"/>
<path d="M16.6665 34.8484H18.1816V36.3635H16.6665V34.8484Z" fill="black"/>
<path d="M15.1509 34.8484H16.666V36.3635H15.1509V34.8484Z" fill="black"/>
<path d="M9.09032 34.8484H10.6055V36.3635H9.09032V34.8484Z" fill="black"/>
<path d="M7.57469 34.8484H9.08984V36.3635H7.57469V34.8484Z" fill="black"/>
<path d="M6.05907 34.8484H7.57422V36.3635H6.05907V34.8484Z" fill="black"/>
<path d="M3.02977 34.8484H4.54492V36.3635H3.02977L3.02977 34.8484Z" fill="black"/>
<path d="M33.3325 36.3635H34.8477V37.8787H33.3325V36.3635Z" fill="black"/>
<path d="M31.8169 36.3635H33.332V37.8787H31.8169V36.3635Z" fill="black"/>
<path d="M30.3013 36.3635H31.8164V37.8787H30.3013V36.3635Z" fill="black"/>
<path d="M28.7876 36.3635H30.3027V37.8787H28.7876V36.3635Z" fill="black"/>
<path d="M27.272 36.3635H28.7871V37.8787H27.272V36.3635Z" fill="black"/>
<path d="M25.7563 36.3635H27.2715V37.8787H25.7563V36.3635Z" fill="black"/>
<path d="M24.2407 36.3635H25.7559V37.8787H24.2407V36.3635Z" fill="black"/>
<path d="M22.727 36.3635H24.2422V37.8787H22.727V36.3635Z" fill="black"/>
<path d="M15.1509 36.3635H16.666V37.8787H15.1509V36.3635Z" fill="black"/>
<path d="M12.1196 36.3635H13.6348V37.8787H12.1196V36.3635Z" fill="black"/>
<path d="M9.09032 36.3635H10.6055V37.8787H9.09032V36.3635Z" fill="black"/>
<path d="M3.02977 36.3635H4.54492V37.8787H3.02977L3.02977 36.3635Z" fill="black"/>
<path d="M30.3013 37.8787H31.8164V39.3938H30.3013V37.8787Z" fill="black"/>
<path d="M28.7876 37.8787H30.3027V39.3938H28.7876V37.8787Z" fill="black"/>
<path d="M27.272 37.8787H28.7871V39.3938H27.272V37.8787Z" fill="black"/>
<path d="M24.2407 37.8787H25.7559V39.3938H24.2407V37.8787Z" fill="black"/>
<path d="M22.727 37.8787H24.2422V39.3938H22.727V37.8787Z" fill="black"/>
<path d="M18.1802 37.8787H19.6953V39.3938H18.1802V37.8787Z" fill="black"/>
<path d="M16.6665 37.8787H18.1816V39.3938H16.6665V37.8787Z" fill="black"/>
<path d="M15.1509 37.8787H16.666V39.3938H15.1509V37.8787Z" fill="black"/>
<path d="M9.09032 37.8787H10.6055V39.3938H9.09032V37.8787Z" fill="black"/>
<path d="M31.8169 39.3938H33.332V40.909H31.8169V39.3938Z" fill="black"/>
<path d="M30.3013 39.3938H31.8164V40.909H30.3013V39.3938Z" fill="black"/>
<path d="M28.7876 39.3938H30.3027V40.909H28.7876V39.3938Z" fill="black"/>
<path d="M27.272 39.3938H28.7871V40.909H27.272V39.3938Z" fill="black"/>
<path d="M25.7563 39.3938H27.2715V40.909H25.7563V39.3938Z" fill="black"/>
<path d="M24.2407 39.3938H25.7559V40.909H24.2407V39.3938Z" fill="black"/>
<path d="M22.727 39.3938H24.2422V40.909H22.727V39.3938Z" fill="black"/>
<path d="M18.1802 39.3938H19.6953V40.909H18.1802V39.3938Z" fill="black"/>
<path d="M16.6665 39.3938H18.1816V40.909H16.6665V39.3938Z" fill="black"/>
<path d="M15.1509 39.3938H16.666V40.909H15.1509V39.3938Z" fill="black"/>
<path d="M13.6352 39.3938H15.1504V40.909H13.6352V39.3938Z" fill="black"/>
<path d="M12.1196 39.3938H13.6348V40.909H12.1196V39.3938Z" fill="black"/>
<path d="M10.6059 39.3938H12.1211V40.909H10.6059V39.3938Z" fill="black"/>
<path d="M9.09032 39.3938H10.6055V40.909H9.09032V39.3938Z" fill="black"/>
<path d="M7.57469 39.3938H9.08984V40.909H7.57469V39.3938Z" fill="black"/>
<path d="M4.5454 39.3938H6.06055V40.909H4.5454V39.3938Z" fill="black"/>
<path d="M3.02977 39.3938H4.54492V40.909H3.02977L3.02977 39.3938Z" fill="black"/>
<path d="M31.8169 40.9092H33.332V42.4243H31.8169V40.9092Z" fill="black"/>
<path d="M30.3013 40.9092H31.8164V42.4243H30.3013V40.9092Z" fill="black"/>
<path d="M28.7876 40.9092H30.3027V42.4243H28.7876V40.9092Z" fill="black"/>
<path d="M27.272 40.9092H28.7871V42.4243H27.272V40.9092Z" fill="black"/>
<path d="M25.7563 40.9092H27.2715V42.4243H25.7563V40.9092Z" fill="black"/>
<path d="M24.2407 40.9092H25.7559V42.4243H24.2407V40.9092Z" fill="black"/>
<path d="M22.727 40.9092H24.2422V42.4243H22.727V40.9092Z" fill="black"/>
<path d="M18.1802 40.9092H19.6953V42.4243H18.1802V40.9092Z" fill="black"/>
<path d="M15.1509 40.9092H16.666V42.4243H15.1509V40.9092Z" fill="black"/>
<path d="M13.6352 40.9092H15.1504V42.4243H13.6352V40.9092Z" fill="black"/>
<path d="M10.6059 40.9092H12.1211V42.4243H10.6059V40.9092Z" fill="black"/>
<path d="M9.09032 40.9092H10.6055V42.4243H9.09032V40.9092Z" fill="black"/>
<path d="M7.57469 40.9092H9.08984V42.4243H7.57469V40.9092Z" fill="black"/>
<path d="M6.05907 40.9092H7.57422V42.4243H6.05907V40.9092Z" fill="black"/>
<path d="M3.02977 40.9092H4.54492V42.4243H3.02977L3.02977 40.9092Z" fill="black"/>
<path d="M33.3325 42.4243H34.8477V43.9395H33.3325V42.4243Z" fill="black"/>
<path d="M31.8169 42.4243H33.332V43.9395H31.8169V42.4243Z" fill="black"/>
<path d="M30.3013 42.4243H31.8164V43.9395H30.3013V42.4243Z" fill="black"/>
<path d="M22.727 42.4243H24.2422V43.9395H22.727V42.4243Z" fill="black"/>
<path d="M18.1802 42.4243H19.6953V43.9395H18.1802V42.4243Z" fill="black"/>
<path d="M16.6665 42.4243H18.1816V43.9395H16.6665V42.4243Z" fill="black"/>
<path d="M15.1509 42.4243H16.666V43.9395H15.1509V42.4243Z" fill="black"/>
<path d="M13.6352 42.4243H15.1504V43.9395H13.6352V42.4243Z" fill="black"/>
<path d="M9.09032 42.4243H10.6055V43.9395H9.09032V42.4243Z" fill="black"/>
<path d="M4.5454 42.4243H6.06055V43.9395H4.5454V42.4243Z" fill="black"/>
<path d="M3.02977 42.4243H4.54492V43.9395H3.02977L3.02977 42.4243Z" fill="black"/>
<path d="M31.8169 43.9395H33.332V45.4546H31.8169V43.9395Z" fill="black"/>
<path d="M28.7876 43.9395H30.3027V45.4546H28.7876V43.9395Z" fill="black"/>
<path d="M27.272 43.9395H28.7871V45.4546H27.272V43.9395Z" fill="black"/>
<path d="M24.2407 43.9395H25.7559V45.4546H24.2407V43.9395Z" fill="black"/>
<path d="M21.2114 43.9395H22.7266V45.4546H21.2114V43.9395Z" fill="black"/>
<path d="M16.6665 43.9395H18.1816V45.4546H16.6665V43.9395Z" fill="black"/>
<path d="M15.1509 43.9395H16.666V45.4546H15.1509V43.9395Z" fill="black"/>
<path d="M13.6352 43.9395H15.1504V45.4546H13.6352V43.9395Z" fill="black"/>
<path d="M12.1196 43.9395H13.6348V45.4546H12.1196V43.9395Z" fill="black"/>
<path d="M10.6059 43.9395H12.1211V45.4546H10.6059V43.9395Z" fill="black"/>
<path d="M9.09032 43.9395H10.6055V45.4546H9.09032V43.9395Z" fill="black"/>
<path d="M7.57469 43.9395H9.08984V45.4546H7.57469V43.9395Z" fill="black"/>
<path d="M33.3325 45.4546H34.8477V46.9697H33.3325V45.4546Z" fill="black"/>
<path d="M31.8169 45.4546H33.332V46.9697H31.8169V45.4546Z" fill="black"/>
<path d="M30.3013 45.4546H31.8164V46.9697H30.3013V45.4546Z" fill="black"/>
<path d="M27.272 45.4546H28.7871V46.9697H27.272V45.4546Z" fill="black"/>
<path d="M24.2407 45.4546H25.7559V46.9697H24.2407V45.4546Z" fill="black"/>
<path d="M22.727 45.4546H24.2422V46.9697H22.727V45.4546Z" fill="black"/>
<path d="M18.1802 45.4546H19.6953V46.9697H18.1802V45.4546Z" fill="black"/>
<path d="M15.1509 45.4546H16.666V46.9697H15.1509V45.4546Z" fill="black"/>
<path d="M9.09032 45.4546H10.6055V46.9697H9.09032V45.4546Z" fill="black"/>
<path d="M3.02977 45.4546H4.54492V46.9697H3.02977L3.02977 45.4546Z" fill="black"/>
<path d="M37.9536 3.03027L45.3778 3.03027L46.9688 3.03027V4.62118V12.0454V13.6363H45.3778L37.9536 13.6363H36.3627V12.0454V4.62118V3.03027L37.9536 3.03027ZM37.9536 12.0454L45.3778 12.0454V4.62118L37.9536 4.62118V12.0454Z" fill="black"/>
<path d="M4.61961 3.03027L12.0439 3.03027L13.6348 3.03027V4.62118L13.6348 12.0454V13.6363H12.0439L4.61961 13.6363H3.0287V12.0454L3.0287 4.62118V3.03027L4.61961 3.03027ZM4.61961 12.0454L12.0439 12.0454L12.0439 4.62118L4.61961 4.62118L4.61961 12.0454Z" fill="black"/>
<path d="M37.9536 36.3635H45.3778H46.9688V37.9544V45.3787V46.9696H45.3778H37.9536H36.3627V45.3787V37.9544V36.3635H37.9536ZM37.9536 45.3787H45.3778V37.9544H37.9536V45.3787Z" fill="black"/>
<path d="M39.392 6.06055L43.9375 6.06055V10.606H39.392V6.06055Z" fill="black"/>
<path d="M6.06001 6.06055L10.6055 6.06055L10.6055 10.606H6.06001L6.06001 6.06055Z" fill="black"/>
<path d="M39.392 39.3938H43.9375V43.9393H39.392V39.3938Z" fill="black"/>
</g>
<defs>
<clipPath id="clip0_9335_43561">
<rect width="50" height="50" fill="white" transform="matrix(-1 0 0 1 50 0)"/>
</clipPath>
</defs>
</svg>
